:FULLY-SPECIFIED
:FORCE-ALL-JOINTS-BE-3DOF
:DEGREES
136
root 7.6464 16.7101 -26.3036 -8.31649 16.5649 -0.386677
lfemur -8.03578 17.5694 -17.8448
ltibia 30.141 -0 0
lfoot -10.7301 -2.63509 0.323991
ltoes 36.5351 -0 0
rfemur -69.3716 -20.1601 14.8502
rtibia 68.8089 -0 0
rfoot 15.4877 11.1535 -1.11906
rtoes -15.3467 0 0
lowerback 14.0637 -4.11413 -4.12512
upperback 4.41493 -5.97139 0.965566
thorax -2.7839 -2.96237 3.98007
lowerneck -11.8131 -2.52928 -0.0826994
upperneck 1.54568 -3.47207 2.38144
head 2.62019 -1.6428 0.575253
lclavicle 9.79511e-014 0 0
lhumerus -39.356 -23.2298 95.5868
lradius 49.3773 -0 0
lwrist 11.616 0 0
lhand 15.8012 10.8087 0.512415
lfingers 7.12502 -0 0
lthumb 40.4667 34.7677 0.0750709
rclavicle 9.79511e-014 0 0
rhumerus -46.5678 -11.8368 -59.409
rradius 75.5288 -0 0
rwrist -5.06615 0 0
rhand 17.1023 -12.0944 0.720907
rfingers 7.12502 -0 0
rthumb 41.6587 -35.623 1.10426
137
root 7.61358 16.6885 -26.2866 -7.98326 17.3528 -0.522675
lfemur -8.7429 18.4951 -17.8118
ltibia 30.5268 -0 0
lfoot -10.4663 -1.40648 0.330151
ltoes 36.6885 -0 0
rfemur -69.0465 -20.4788 14.8235
rtibia 71.4075 -0 0
rfoot 16.3831 10.557 -1.15647
rtoes -14.7224 0 0
lowerback 13.793 -4.34544 -4.17248
upperback 4.28281 -6.27915 0.941676
thorax -2.74922 -3.11349 3.99436
lowerneck -11.7562 -2.6256 -0.200956
upperneck 1.56465 -3.5911 2.53031
head 2.62545 -1.69813 0.6381
lclavicle 9.79511e-014 0 0
lhumerus -39.3294 -24.1422 95.9852
lradius 49.3641 -0 0
lwrist 11.5533 0 0
lhand 16.7758 11.2681 0.537926
lfingers 7.12502 -0 0
lthumb 41.3701 34.8557 0.0776155
rclavicle 9.79511e-014 0 0
rhumerus -47.1588 -12.6463 -60.1347
rradius 76.6702 -0 0
rwrist -5.44268 0 0
rhand 18.1683 -11.5516 0.756006
rfingers 7.12502 -0 0
rthumb 42.648 -34.6506 1.16057
138
root 7.58077 16.6668 -26.2696 -7.62779 18.1493 -0.659504
lfemur -9.48423 19.4153 -17.7786
ltibia 30.9261 -0 0
lfoot -10.2041 -0.153558 0.330341
ltoes 36.8284 -0 0
rfemur -68.6579 -20.7974 14.7883
rtibia 74.0309 -0 0
rfoot 17.2562 9.9334 -1.17859
rtoes -14.0736 0 0
lowerback 13.4997 -4.5764 -4.21263
upperback 4.1417 -6.58447 0.917304
thorax -2.71129 -3.26351 4.00339
lowerneck -11.6966 -2.72559 -0.31891
upperneck 1.58059 -3.71529 2.68171
head 2.6294 -1.75598 0.701564
lclavicle 9.79511e-014 0 0
lhumerus -39.3166 -25.0647 96.3952
lradius 49.3495 -0 0
lwrist 11.4925 0 0
lhand 17.7638 11.7375 0.557201
lfingers 7.12502 -0 0
lthumb 42.2856 34.9465 0.0794161
rclavicle 9.79511e-014 0 0
rhumerus -47.7479 -13.4588 -60.8907
rradius 77.8258 -0 0
rwrist -5.82316 0 0
rhand 19.2325 -10.9972 0.781362
rfingers 7.12502 -0 0
rthumb 43.6357 -33.662 1.20184
139
root 7.54795 16.6451 -26.2526 -7.25272 18.9493 -0.794976
lfemur -10.2521 20.3244 -17.7448
ltibia 31.3339 -0 0
lfoot -9.94489 1.11305 0.3246
ltoes 36.9575 -0 0
rfemur -68.2094 -21.1143 14.7422
rtibia 76.6615 -0 0
rfoot 18.1015 9.28751 -1.18528
rtoes -13.4004 0 0
lowerback 13.186 -4.80584 -4.24567
upperback 3.99285 -6.88592 0.89209
thorax -2.67027 -3.41174 4.00678
lowerneck -11.6348 -2.82842 -0.435871
upperneck 1.59392 -3.84364 2.83487
head 2.63224 -1.81584 0.765308
lclavicle 9.79511e-014 0 0
lhumerus -39.3181 -25.9934 96.8158
lradius 49.3342 -0 0
lwrist 11.4346 0 0
lhand 18.7612 12.2156 0.569916
lfingers 7.12502 -0 0
lthumb 43.2093 35.0402 0.0804648
rclavicle 9.79511e-014 0 0
rhumerus -48.3316 -14.2663 -61.6716
rradius 78.9929 -0 0
rwrist -6.20566 0 0
rhand 20.2908 -10.4348 0.796551
rfingers 7.12502 -0 0
rthumb 44.6179 -32.6629 1.22736
140
root 7.51513 16.6234 -26.2356 -6.86064 19.7478 -0.927016
lfemur -11.0389 21.2166 -17.7098
ltibia 31.7451 -0 0
lfoot -9.6904 2.38275 0.31313
ltoes 37.0781 -0 0
rfemur -67.7047 -21.428 14.6833
rtibia 79.2818 -0 0
rfoot 18.9137 8.62427 -1.17671
rtoes -12.7025 0 0
lowerback 12.8542 -5.03259 -4.27173
upperback 3.83751 -7.18207 0.865652
thorax -2.6263 -3.5575 4.00414
lowerneck -11.5715 -2.93327 -0.551144
upperneck 1.60504 -3.97509 2.98905
head 2.63418 -1.87723 0.828997
lclavicle 9.79511e-014 0 0
lhumerus -39.3349 -26.9248 97.2457
lradius 49.3189 -0 0
lwrist 11.3804 0 0
lhand 19.7637 12.701 0.575851
lfingers 7.12502 -0 0
lthumb 44.1376 35.1373 0.0807546
rclavicle 9.79511e-014 0 0
rhumerus -48.9066 -15.0607 -62.4716
rradius 80.1686 -0 0
rwrist -6.58827 0 0
rhand 21.339 -9.86782 0.801361
rfingers 7.12502 -0 0
rthumb 45.5906 -31.6595 1.23674
141
root 7.48232 16.6017 -26.2187 -6.45409 20.5399 -1.05367
lfemur -11.8364 22.0864 -17.6724
ltibia 32.1547 -0 0
lfoot -9.44213 3.64493 0.296295
ltoes 37.1926 -0 0
rfemur -67.1473 -21.7366 14.6092
rtibia 81.8743 -0 0
rfoot 19.6874 7.94856 -1.15335
rtoes -11.9798 0 0
lowerback 12.5065 -5.25548 -4.29096
upperback 3.67693 -7.47147 0.837583
thorax -2.57952 -3.70011 3.99507
lowerneck -11.5073 -3.03932 -0.66403
upperneck 1.61437 -4.10865 3.14346
head 2.63541 -1.93963 0.892291
lclavicle 9.79511e-014 0 0
lhumerus -39.3675 -27.8551 97.6838
lradius 49.3043 -0 0
lwrist 11.3311 0 0
lhand 20.7675 13.1926 0.574896
lfingers 7.12502 -0 0
lthumb 45.0667 35.238 0.0802801
rclavicle 9.79511e-014 0 0
rhumerus -49.4703 -15.8336 -63.2857
rradius 81.35 -0 0
rwrist -6.96906 0 0
rhand 22.3731 -9.29979 0.795786
rfingers 7.12502 -0 0
rthumb 46.5499 -30.6576 1.22994
142
root 7.4495 16.58 -26.2017 -6.03559 21.3204 -1.1731
lfemur -12.6367 22.9281 -17.6308
ltibia 32.5575 -0 0
lfoot -9.20162 4.889 0.274616
ltoes 37.3035 -0 0
rfemur -66.5409 -22.0385 14.5181
rtibia 84.4215 -0 0
rfoot 20.4172 7.26523 -1.11592
rtoes -11.2324 0 0
lowerback 12.1453 -5.47332 -4.30356
upperback 3.51237 -7.75271 0.807455
thorax -2.53007 -3.83887 3.9792
lowerneck -11.4429 -3.14574 -0.773827
upperneck 1.62235 -4.24326 3.29735
head 2.63614 -2.00255 0.954853
lclavicle 9.79511e-014 0 0
lhumerus -39.4164 -28.7805 98.129
lradius 49.291 -0 0
lwrist 11.2876 0 0
lhand 21.7683 13.6889 0.567055
lfingers 7.12502 -0 0
lthumb 45.9928 35.3427 0.0790384
rclavicle 9.79511e-014 0 0
rhumerus -50.02 -16.5766 -64.1084
rradius 82.5345 -0 0
rwrist -7.3461 0 0
rhand 23.3888 -8.73424 0.780027
rfingers 7.12502 -0 0
rthumb 47.4917 -29.6634 1.20725
143
root 7.41668 16.5583 -26.1847 -5.60762 22.0842 -1.28363
lfemur -13.4313 23.7362 -17.5831
ltibia 32.9485 -0 0
lfoot -8.97036 6.10436 0.248761
ltoes 37.4131 -0 0
rfemur -65.8892 -22.3318 14.4079
rtibia 86.9058 -0 0
rfoot 21.0978 6.57904 -1.06543
rtoes -10.46 0 0
lowerback 11.7728 -5.68493 -4.30975
upperback 3.3451 -8.02434 0.774816
thorax -2.4781 -3.97309 3.95613
lowerneck -11.379 -3.25172 -0.879827
upperneck 1.6294 -4.37793 3.44995
head 2.63659 -2.06548 1.01634
lclavicle 9.79511e-014 0 0
lhumerus -39.4822 -29.6973 98.5801
lradius 49.2796 -0 0
lwrist 11.2508 0 0
lhand 22.7621 14.1888 0.552443
lfingers 7.12502 -0 0
lthumb 46.9123 35.4516 0.0770304
rclavicle 9.79511e-014 0 0
rhumerus -50.5537 -17.2809 -64.9347
rradius 83.7191 -0 0
rwrist -7.71748 0 0
rhand 24.382 -8.17467 0.754488
rfingers 7.12502 -0 0
rthumb 48.4122 -28.6826 1.16925
144
root 7.38387 16.5366 -26.1677 -5.1727 22.8261 -1.38368
lfemur -14.2116 24.5051 -17.5265
ltibia 33.3227 -0 0
lfoot -8.74983 7.28043 0.219531
ltoes 37.5239 -0 0
rfemur -65.1958 -22.6147 14.2769
rtibia 89.3098 -0 0
rfoot 21.7237 5.89473 -1.00313
rtoes -9.66264 0 0
lowerback 11.3912 -5.88912 -4.30981
upperback 3.17638 -8.28494 0.739192
thorax -2.42375 -4.1021 3.92549
lowerneck -11.3161 -3.35645 -0.981317
upperneck 1.63599 -4.51163 3.60048
head 2.63696 -2.12794 1.07643
lclavicle 9.79511e-014 0 0
lhumerus -39.5652 -30.6017 99.0358
lradius 49.2709 -0 0
lwrist 11.2217 0 0
lhand 23.7448 14.6909 0.531294
lfingers 7.12502 -0 0
lthumb 47.8213 35.5651 0.0742624
rclavicle 9.79511e-014 0 0
rhumerus -51.0694 -17.9376 -65.7595
rradius 84.9011 -0 0
rwrist -8.08126 0 0
rhand 25.3485 -7.62456 0.719763
rfingers 7.12502 -0 0
rthumb 49.3073 -27.7213 1.11687
145
root 7.35105 16.515 -26.1507 -4.73334 23.541 -1.47184
lfemur -14.9688 25.2293 -17.4582
ltibia 33.6749 -0 0
lfoot -8.54145 8.40663 0.18785
ltoes 37.6384 -0 0
rfemur -64.4645 -22.8853 14.1233
rtibia 91.616 -0 0
rfoot 22.2898 5.21697 -0.930496
rtoes -8.84015 0 0
lowerback 11.003 -6.08471 -4.30404
upperback 3.0075 -8.53308 0.700089
thorax -2.36717 -4.22519 3.88689
lowerneck -11.255 -3.45911 -1.07758
upperneck 1.64256 -4.64334 3.74818
head 2.63746 -2.18941 1.13476
lclavicle 9.79511e-014 0 0
lhumerus -39.6655 -31.49 99.4947
lradius 49.2656 -0 0
lwrist 11.2014 0 0
lhand 24.7123 15.1939 0.503952
lfingers 7.12502 -0 0
lthumb 48.7162 35.6834 0.0707476
rclavicle 9.79511e-014 0 0
rhumerus -51.5658 -18.5377 -66.5779
rradius 86.0776 -0 0
rwrist -8.43553 0 0
rhand 26.2842 -7.08734 0.676629
rfingers 7.12502 -0 0
rthumb 50.1733 -26.7854 1.05129
